HIERARCHY
ROOT root
{
	OFFSET 0.000000 0.000000 0.000000
	CHANNELS 6 Xposition Yposition Zposition Zrotation Yrotation Xrotation
	JOINT lhip
	{
		OFFSET 0.058581 -0.082280 -0.017664
		CHANNELS 3 Zrotation Yrotation Xrotation
		JOINT lknee
		{
			OFFSET 0.043451 -0.386469 0.008037
			CHANNELS 3 Zrotation Yrotation Xrotation
			JOINT lankle
			{
				OFFSET -0.014790 -0.426874 -0.037428
				CHANNELS 3 Zrotation Yrotation Xrotation
				JOINT ltoe
				{
					OFFSET 0.041054 -0.060286 0.122042
					CHANNELS 3 Zrotation Yrotation Xrotation
					End Site
					{
						OFFSET 0.000000 0.000000 0.000000
					}
				}
			}
		}
	}
	JOINT rhip
	{
		OFFSET -0.060310 -0.090513 -0.013543
		CHANNELS 3 Zrotation Yrotation Xrotation
		JOINT rknee
		{
			OFFSET -0.043257 -0.383688 -0.004843
			CHANNELS 3 Zrotation Yrotation Xrotation
			JOINT rankle
			{
				OFFSET 0.019056 -0.420046 -0.034562
				CHANNELS 3 Zrotation Yrotation Xrotation
				JOINT rtoe
				{
					OFFSET -0.034840 -0.062106 0.130323
					CHANNELS 3 Zrotation Yrotation Xrotation
					End Site
					{
						OFFSET 0.000000 0.000000 0.000000
					}
				}
			}
		}
	}
	JOINT lowerback
	{
		OFFSET 0.004439 0.124404 -0.038385
		CHANNELS 3 Zrotation Yrotation Xrotation
		JOINT upperback
		{
			OFFSET 0.004488 0.137956 0.026820
			CHANNELS 3 Zrotation Yrotation Xrotation
			JOINT chest
			{
				OFFSET -0.002265 0.056032 0.002855
				CHANNELS 3 Zrotation Yrotation Xrotation
				JOINT lowerneck
				{
					OFFSET -0.013390 0.211636 -0.033468
					CHANNELS 3 Zrotation Yrotation Xrotation
					JOINT upperneck
					{
						OFFSET 0.010113 0.088937 0.050410
						CHANNELS 3 Zrotation Yrotation Xrotation
						End Site
						{
							OFFSET 0.000000 0.000000 0.000000
						}
					}
				}
				JOINT lclavicle
				{
					OFFSET 0.071702 0.114000 -0.018898
					CHANNELS 3 Zrotation Yrotation Xrotation
					JOINT lshoulder
					{
						OFFSET 0.122921 0.045205 -0.019046
						CHANNELS 3 Zrotation Yrotation Xrotation
						JOINT lelbow
						{
							OFFSET 0.255332 -0.015649 -0.022946
							CHANNELS 3 Zrotation Yrotation Xrotation
							JOINT lwrist
							{
								OFFSET 0.265709 0.012698 -0.007375
								CHANNELS 3 Zrotation Yrotation Xrotation
								End Site
								{
									OFFSET 0.000000 0.000000 0.000000
								}
							}
						}
					}
				}
				JOINT rclavicle
				{
					OFFSET -0.082954 0.112472 -0.023707
					CHANNELS 3 Zrotation Yrotation Xrotation
					JOINT rshoulder
					{
						OFFSET -0.113228 0.046853 -0.008472
						CHANNELS 3 Zrotation Yrotation Xrotation
						JOINT relbow
						{
							OFFSET -0.260127 -0.014369 -0.031269
							CHANNELS 3 Zrotation Yrotation Xrotation
							JOINT rwrist
							{
								OFFSET -0.269108 0.006794 -0.006027
								CHANNELS 3 Zrotation Yrotation Xrotation
								End Site
								{
									OFFSET 0.000000 0.000000 0.000000
								}
							}
						}
					}
				}
			}
		}
	}
}
MOTION
Frames: 17
Frame Time: 0.033333
-0.082522 1.406646 0.959650 -81.142978 3.345849 81.586369 2.950829 -1.538841 19.257260 -7.893868 -23.563359 24.127750 4.462920 8.908120 -26.154437 0.000000 -0.000000 0.000000 0.819047 -0.680100 -16.847343 3.252231 -3.057363 12.357863 5.411028 -9.545605 1.162883 0.000000 -0.000000 0.000000 -3.221480 -5.712925 1.448652 3.589077 -6.263146 7.732522 0.729473 -5.534522 4.182969 3.708816 -1.728065 14.869090 -4.061276 3.177446 23.291728 -22.087077 2.397376 8.873039 -64.512196 -17.815526 9.550190 12.837768 -35.117213 6.983943 0.138070 -4.853959 -10.829685 19.644801 -8.128473 6.341009 66.630077 -4.787536 6.800878 -18.049572 15.303215 -5.022433 12.333570 0.952946 -11.200839 
-0.118450 1.413378 0.962796 -82.269650 4.588418 81.603660 3.544023 -2.823041 18.507463 -9.013327 -21.075236 30.940226 2.279846 8.047809 -21.915992 0.000000 -0.000000 0.000000 2.709206 1.580357 -16.506548 3.677938 -3.608357 16.032098 3.385844 -10.361689 0.487358 0.000000 -0.000000 0.000000 -1.831238 -6.170543 0.598166 4.033281 -5.660190 8.495885 0.378306 -5.286760 3.461813 3.967821 -2.788147 14.949668 -4.718442 2.581705 22.729085 -22.959326 3.248636 8.533976 -64.678498 -16.448523 9.466088 13.203112 -33.525831 7.093256 -1.138529 -5.017679 -9.535589 20.067707 -8.156074 6.237457 66.351414 -4.425127 7.025070 -17.747462 14.413409 -4.528324 11.347430 1.260225 -12.820910 
-0.161438 1.422249 0.968863 -84.220157 5.818324 80.557850 4.803691 -3.086798 15.146454 -10.953127 -14.927412 43.373033 -2.100874 5.187534 -11.651417 0.000000 -0.000000 0.000000 5.607469 2.986813 -12.803935 3.833799 -3.520467 16.761743 0.100418 -9.445529 -0.927992 0.000000 -0.000000 0.000000 -0.766134 -5.670762 1.037418 4.542756 -5.462019 9.479679 0.296955 -4.868933 2.619780 3.955417 -3.257985 14.694004 -4.935779 2.260630 23.010874 -23.094142 3.982341 8.008468 -66.093413 -13.870884 8.651880 14.530117 -31.939889 6.430907 -3.454291 -4.062176 -7.988946 19.960809 -7.619476 6.039476 66.567497 -3.847756 6.453284 -17.706010 14.948388 -3.281562 12.381723 0.637630 -12.653664 
-0.193488 1.428985 0.973244 -85.423764 6.158620 79.367761 5.740292 -2.170039 11.218992 -11.433745 -10.512062 53.287682 -3.379778 4.464450 -4.708289 0.000000 -0.000000 0.000000 7.189336 1.737853 -8.270100 3.702379 -3.208903 15.156573 -1.618023 -7.172671 -3.494031 0.000000 -0.000000 0.000000 -0.637460 -4.389635 2.227746 4.732885 -5.683360 9.990381 0.647111 -4.314530 1.687676 3.392999 -3.913704 15.584543 -4.366088 2.531417 22.828104 -23.392278 3.653060 8.119774 -66.292881 -11.628957 7.317037 14.219533 -31.140339 6.483718 -3.896400 -2.989708 -7.921065 19.871120 -6.768609 6.638445 66.556205 -4.064388 5.176719 -17.377096 17.735024 -1.873732 13.170231 0.812114 -12.765081 
-0.222307 1.434340 0.976995 -86.575027 6.397621 78.331161 6.099388 -1.924012 6.663924 -10.743150 -6.200946 61.752379 -1.823721 6.836878 -3.914232 0.000000 -0.000000 0.000000 7.855510 -0.067679 -3.969325 4.586847 -1.615503 13.514200 -2.215392 -6.105929 -4.414489 0.000000 -0.000000 0.000000 -0.053076 -2.521874 3.224971 4.826037 -5.697789 10.318914 0.515133 -4.009609 1.296900 2.892249 -4.117872 16.245395 -4.221509 3.660532 23.308637 -23.756079 3.057682 8.782268 -65.762411 -10.445285 5.901062 13.243595 -30.252195 7.704114 -4.671348 -2.648469 -8.247882 19.897659 -6.177430 7.132268 66.443400 -3.713757 4.784111 -17.058976 21.029186 -0.387718 13.454729 1.884019 -13.345229 
-0.249117 1.439082 0.981307 -88.170503 6.466651 77.071882 6.345162 -2.210098 2.525926 -9.145091 -2.061931 66.813304 0.048106 9.197678 -6.748148 0.000000 -0.000000 0.000000 8.607466 -0.116002 0.037472 4.798867 -0.492827 12.372963 -1.996095 -5.975692 -4.957029 0.000000 -0.000000 0.000000 0.379318 -0.888645 4.662058 4.951483 -5.029621 10.142210 0.354927 -3.551211 1.418744 2.750564 -4.291433 16.894597 -4.258883 4.539793 23.817787 -23.967778 2.980804 9.326817 -65.448314 -9.583389 4.730757 12.848013 -29.611608 8.723201 -4.898593 -2.563664 -7.105298 19.895064 -5.569007 7.673875 66.191944 -2.832659 5.036956 -16.899139 24.294857 0.544923 12.305475 2.441770 -14.036013 
-0.273728 1.443131 0.985068 -90.262837 5.913846 76.120552 6.124400 -2.590366 -1.760466 -8.042781 1.068275 68.758325 0.717085 8.952674 -8.002220 0.000000 -0.000000 0.000000 8.638261 -0.972098 3.858305 4.722404 1.296876 10.608276 -1.780024 -5.489122 -4.787521 0.000000 -0.000000 0.000000 0.207237 0.930963 5.838176 4.850870 -4.639385 10.058934 0.600279 -2.787509 1.361108 2.455398 -5.267699 17.662237 -4.011384 4.504006 23.483191 -24.058539 3.478262 9.437229 -65.683779 -8.193892 3.577710 12.965315 -29.157270 9.131444 -4.400135 -2.422302 -5.921364 19.394355 -4.544825 8.102648 65.862196 -1.618032 4.975991 -16.879214 26.909479 1.028594 11.581995 2.773315 -14.078547 
-0.296498 1.446111 0.987367 -92.029814 5.194186 75.460103 5.652450 -3.584265 -5.892302 -8.142729 2.810253 67.758947 1.123086 8.278780 -9.667686 0.000000 -0.000000 0.000000 8.344132 -1.612996 6.121268 4.428407 2.462426 10.859622 -1.448832 -4.907641 -6.318245 0.000000 -0.000000 0.000000 -0.143250 2.429430 6.571974 4.727755 -4.435598 10.248759 0.709172 -1.918253 1.308870 2.260065 -6.108715 18.914475 -3.877923 3.596715 23.659107 -23.771367 4.002486 9.263296 -66.110717 -6.676300 3.000742 13.280126 -28.834196 7.852096 -4.305216 -1.951815 -6.473385 18.920207 -3.586507 8.159270 65.493062 -0.196914 5.058159 -17.257438 29.120839 0.908623 11.999536 2.810508 -13.690135 
-0.317826 1.448433 0.988272 -93.707560 4.523809 75.180969 5.378256 -4.372796 -9.690722 -7.529179 3.852533 64.032549 1.535385 8.740621 -10.952855 0.000000 -0.000000 0.000000 8.047066 -1.767833 7.810579 4.117253 3.969997 11.251964 -1.290481 -4.592659 -7.924423 0.000000 -0.000000 0.000000 -0.159697 3.700695 7.389268 4.373942 -3.955297 9.753103 0.619031 -1.322085 1.433653 2.250376 -6.249544 19.004498 -4.013620 3.360915 23.690451 -23.662356 4.651700 9.166629 -65.958467 -4.890290 2.370433 13.336114 -28.674021 7.243339 -3.940877 -1.880009 -7.223525 18.599049 -2.785999 8.177230 65.008275 1.104797 5.354778 -17.840174 31.107368 0.315339 11.843678 3.002991 -14.124162 
-0.339153 1.450044 0.987877 -95.122698 3.905332 74.802093 5.155279 -4.627982 -12.300324 -6.208731 4.205463 58.164834 2.623559 9.993857 -11.385622 0.000000 -0.000000 0.000000 7.684224 -2.178369 9.355853 3.891391 5.393607 12.303682 -1.510893 -4.527361 -9.883569 0.000000 -0.000000 0.000000 -0.023023 4.774665 7.969978 3.957510 -3.438288 9.572883 0.368606 -0.880211 1.663320 2.365990 -6.313295 18.966164 -4.405377 2.864676 23.923203 -23.630891 5.034019 9.130384 -65.426730 -3.504868 1.941244 13.122819 -28.033803 7.216934 -3.619289 -2.105362 -7.785372 18.355704 -2.055379 8.021604 64.500648 2.632325 5.584333 -17.946432 32.294669 -0.611033 10.088161 3.362867 -14.924286 
-0.360749 1.451143 0.987094 -96.489134 3.264808 74.087977 4.942609 -3.834521 -13.380588 -4.861303 4.168144 50.635447 2.870292 10.908272 -12.313135 0.000000 -0.000000 0.000000 7.086261 -2.709844 11.349088 3.576543 6.946873 13.224854 -1.653916 -4.110283 -11.874462 0.000000 -0.000000 0.000000 0.008888 5.699811 8.465575 3.504550 -2.878861 10.177202 0.296365 -0.326014 1.555167 2.436482 -6.351232 18.250264 -5.099700 2.187530 24.480777 -23.628049 5.182844 8.235824 -65.167026 -1.997350 1.472889 13.140219 -26.475113 7.367501 -3.976201 -1.836527 -7.134789 18.486280 -1.031532 7.671292 63.627198 3.997625 5.348685 -18.001145 32.846265 -1.779482 10.372264 3.648447 -14.495765 
-0.382279 1.452179 0.985146 -97.011410 3.267897 73.566293 5.200455 -2.492476 -13.778082 -3.188187 4.844517 42.343538 3.382185 11.445342 -11.424709 0.000000 -0.000000 0.000000 6.734031 -3.503377 13.605528 3.684663 8.049628 13.264875 -1.975945 -4.164175 -13.684045 0.000000 -0.000000 0.000000 0.538316 6.043865 8.707514 3.107859 -2.536567 11.124588 0.142350 0.187737 1.011829 2.015039 -6.754642 18.543536 -5.347449 2.419107 24.526015 -23.834446 4.955238 8.507698 -64.862721 -1.042614 0.423924 13.631164 -25.300971 7.543554 -4.379851 -1.503637 -6.623895 18.186928 0.373923 7.886437 63.570785 5.290444 4.734332 -18.459490 32.792907 -2.533228 11.262540 4.048546 -14.123088 
-0.403808 1.453063 0.982214 -96.827275 3.673000 73.229569 5.617855 -0.379628 -13.799080 -2.085411 6.519815 33.966953 3.913000 11.740328 -10.546539 0.000000 -0.000000 0.000000 6.416689 -4.778260 15.435852 3.959393 8.069972 13.918772 -2.071446 -3.576780 -15.279786 0.000000 -0.000000 0.000000 1.046534 5.967105 8.975158 2.893281 -2.307260 11.402063 0.200851 0.581143 0.742916 1.958041 -7.275393 18.435554 -5.771869 1.979393 25.221179 -23.860584 5.130307 7.734315 -64.890936 -0.201493 -0.381815 13.895811 -23.254667 7.268248 -5.319662 -1.583905 -5.816275 17.992923 1.107354 7.663410 63.156851 6.564685 4.194230 -17.873939 31.827988 -2.324055 13.799674 4.245805 -12.946013 
-0.426689 1.453586 0.978221 -96.271950 4.012120 73.177582 5.651360 2.156774 -13.463762 -2.331167 8.026012 25.888000 4.603993 11.633041 -9.575948 0.000000 -0.000000 0.000000 6.187933 -5.776488 17.098604 3.913341 8.476086 14.065887 -2.191319 -2.989383 -17.386048 0.000000 -0.000000 0.000000 1.132445 6.169767 8.560693 2.897005 -2.290714 12.096064 0.426872 0.826282 0.140716 1.561062 -7.770124 18.775911 -6.073653 1.975470 25.264595 -24.133799 4.999484 7.779175 -64.854668 0.535803 -1.252580 14.183269 -21.963900 6.304919 -4.512470 -1.177056 -5.727216 18.115331 2.041908 8.057834 62.494546 7.349245 3.604409 -17.447226 32.075494 -2.621693 12.814431 4.100069 -11.920558 
-0.448017 1.453522 0.972644 -94.759168 4.593398 74.115856 5.361199 4.133136 -14.207220 -2.904007 9.948317 19.152041 5.375150 11.439288 -8.561475 0.000000 -0.000000 0.000000 6.702678 -6.355067 17.083101 3.931409 7.833096 15.310268 -2.692346 -3.783414 -18.906189 0.000000 -0.000000 0.000000 1.019547 5.876292 7.562008 3.034503 -2.370297 11.667378 0.633961 0.844207 0.357503 1.563503 -7.785788 19.061826 -6.501443 2.509643 25.789763 -24.129555 5.401964 8.024911 -64.811361 0.586714 -1.810917 13.906767 -21.211416 6.112850 -3.767823 -1.140999 -5.946182 18.320935 2.057580 8.481291 62.014091 8.896643 3.704638 -16.751997 31.770792 -2.216660 11.677649 4.463407 -11.723051 
-0.470171 1.452976 0.967281 -93.450090 4.686508 74.992232 4.177320 5.145113 -14.325652 -2.410760 11.378866 13.772296 6.503150 12.517665 -7.078689 0.000000 -0.000000 0.000000 6.865249 -6.719331 17.014004 3.691421 7.455504 16.772628 -3.112301 -4.285451 -20.472647 0.000000 -0.000000 0.000000 0.478358 5.913740 6.845094 3.001907 -2.319579 11.371473 0.880433 0.965239 0.122083 1.371319 -8.017887 19.560144 -6.644121 3.038698 25.655300 -24.073399 5.702077 8.536393 -64.715810 0.971270 -2.241409 13.865183 -21.630180 6.141795 -3.438229 -0.807339 -6.563341 18.240891 2.214645 8.918193 62.411015 9.599226 3.819327 -16.505280 31.916260 -1.885352 10.822970 3.745200 -11.017952 
-0.493258 1.452723 0.962186 -92.441116 4.848286 75.421647 3.615237 4.906308 -13.967860 -1.985667 11.769689 11.477146 6.573719 13.114960 -4.208497 0.000000 -0.000000 0.000000 7.466949 -6.437040 17.754656 3.386072 7.433103 17.630331 -3.518154 -5.717965 -21.512774 0.000000 -0.000000 0.000000 0.080497 6.165108 6.357598 2.972749 -2.059324 11.353535 0.934271 1.141861 -0.080563 1.313153 -8.726036 19.483180 -6.401246 2.625431 25.966926 -23.849590 5.746451 9.357700 -64.579957 0.995897 -2.491860 13.659252 -22.379513 6.331944 -2.648043 -0.856678 -7.298842 18.101167 2.694303 9.671699 63.222673 10.023938 4.018184 -16.229341 32.110208 -1.372163 10.343253 4.132021 -11.397442 
